<?xml version="1.0" encoding="utf-8"?>
<!-- Svg Vector Icons : http://www.onlinewebfonts.com/icon -->
<!DOCTYPE svg PUBLIC "-//W3C//DTD SVG 1.1//EN" "http://www.w3.org/Graphics/SVG/1.1/DTD/svg11.dtd">
<svg version="1.1" xmlns="http://www.w3.org/2000/svg" xmlns:xlink="http://www.w3.org/1999/xlink" x="0px" y="0px" viewBox="0 0 1000 1000" enable-background="new 0 0 1000 1000" xml:space="preserve">
<metadata> Svg Vector Icons : http://www.onlinewebfonts.com/icon </metadata>
<g><path d="M819.9,175.6c25.3-24.4,25.3-64.9,0-90.1l-22.8-22.7c-25.3-25.3-65.7-25.3-91,0L663,105.5l113.4,113.4L819.9,175.6z" fill="#008b4b"/><path d="M257.9,617.6l148.3-35.9L297.5,473.8L257.9,617.6z" fill="#008b4b"/><path d="M432.4,561.5l316.4-315L635.3,133L317.8,447.7L432.4,561.5z" fill="#008b4b"/><path d="M475.9,815.1H97.8c-9.6,0-17.4-7.8-17.4-17.4V165.2c0-9.6,7.8-17.4,17.4-17.4h441.4V77.3H97.8c-48.4,0-87.8,39.4-87.8,87.8v632.5c0,48.4,39.4,87.8,87.8,87.8h422.7C502.4,864.6,487.3,840.8,475.9,815.1z" fill="#008b4b"/><path d="M735.9,448.1c-140.1,0-254.1,114-254.1,254.1c0,140.1,114,254.1,254.1,254.1c140.1,0,254.1-114,254.1-254.1C990,562.1,876,448.1,735.9,448.1L735.9,448.1z M735.9,896.7c-107.3,0-194.5-87.3-194.5-194.5s87.3-194.5,194.5-194.5s194.5,87.3,194.5,194.5S843.2,896.7,735.9,896.7L735.9,896.7z" fill="#008b4b"/><path d="M859.5,665.6c3.2-3.7,6.2-8.3,8.9-13.7c2.7-5.3,1.9-10.2-2.4-14.5l-7.7-8.1c-4-4.3-6.7-6.7-7.7-7.3c-5.5-3.7-10.6-4.3-15.5-1.5c-4.9,2.6-9.8,6.4-14.6,11.3c-12.5,12.4-24.7,24.4-37,36.3c-12.1,11.8-23.7,23.1-34.5,33.8c-3.8,3.8-8.1,6.1-12.6,6.9c-4.6,0.7-8.3-0.7-11.1-4.5l-7.6-8c-3.6-3.8-7.3-7.9-11.1-12.1l-10.9-12.5c-3.6-4-6.1-6.9-7.7-8.4c-3.2-2.7-6.9-4.4-10.9-5.2c-4-0.8-8.3,0.6-12.6,4.4l-4,3.7c-2.3,1.8-4.4,3.9-6.5,6.4c-2.1,2.4-4.3,4.5-6.5,6.4l-4,3.6c-8.1,8.7-7,18.6,3.3,29.8c3.2,3.8,7.5,8.5,13,14.2c5.4,5.6,11.1,11.6,17,18.1c6.1,6.4,12,12.7,18,18.9c5.9,6.2,11.1,11.2,15.5,14.9c4.3,4.4,10.2,6.3,17.8,6.1c7.6-0.2,13.3-2.5,17-6.8c7.6-7,16.3-15.5,26.1-25.4c9.7-9.9,20-20,30.4-30.2c10.6-10.1,20.9-20.2,30.9-30.2C842.3,681.9,851.4,673.1,859.5,665.6L859.5,665.6L859.5,665.6z" fill="#008b4b"/></g>
</svg>